<svg xmlns="http://www.w3.org/2000/svg" width="253.22" height="94.486" viewBox="0 0 253.22 94.486">
  <g id="Group_13" data-name="Group 13" transform="translate(-367.426 -303.101)">
    <path id="Path_43" data-name="Path 43" d="M378.721,377.008a3.285,3.285,0,0,1,.17-1.086c1.652-3.579,1.156-7.146,0-10.713a25.7,25.7,0,0,1-.657-4.854,6.368,6.368,0,0,0-5.21-5.854,9.773,9.773,0,0,1-4.624-2.3c-1.482-1.444-1.29-2.821.692-3.565a10.009,10.009,0,0,1,4.834-.677c4.065.562,6.274-1.651,8.026-4.855a36.346,36.346,0,0,1,8.3-9.631c1.873-1.65,4.022-2.87,5.97-4.387a6.927,6.927,0,0,1,2.236-1.174c4.461-1.317,8.74-3.21,13.49-3.6,4.327-.353,5.231-2.885,2.388-6.321a61.988,61.988,0,0,0-4.922-5.07,10.037,10.037,0,0,0-6.255-2.908c-2.378-.244-3.593-1.8-3.21-3.651a3.922,3.922,0,0,1,4.525-3.2c.089.015.178.034.266.055,2.4.491,4.052,2.145,5.754,3.685a92.268,92.268,0,0,1,11.993,12.491c.979,1.294,2.083,2.506,3.109,3.775,2.286,2.827,3.828,2.951,7.049,1.16a17.113,17.113,0,0,1,9.446-2.615,5.409,5.409,0,0,1,4.928,3c.964,2.051-.126,3.879-1.526,5.358a23.587,23.587,0,0,1-6.3,5c-2.33,1.194-2.932,3.072-2.067,5.55a31.89,31.89,0,0,0,3.36,6.417,67.645,67.645,0,0,1,7.235,14.278,17.48,17.48,0,0,1,0,10.18,1.094,1.094,0,0,1-.11.32c-.418.642-.768,1.626-1.566,1.54-.631-.067-1.087-.948-1.259-1.664a11.749,11.749,0,0,1-.387-2.67c-.014-4.916-2.141-9.027-4.882-12.894-.848-1.2-2.145-1.043-3.1.155-1.472,1.84-2.184,4.069-3.2,6.136a43.191,43.191,0,0,1-16,16.947,44.383,44.383,0,0,0-4.178,2.816,14.107,14.107,0,0,0-4.453,7.93c-.512,2.128-.709,4.342-1.823,6.309-.306.54-.4,1.282-1.211,1.156-.876-.138-.871-.939-.911-1.6-.122-2.027-.1-4.068-.329-6.081-.352-3.147-1.742-4.754-4.442-5.2-4-.654-7.531-2.6-11.3-3.9a4.871,4.871,0,0,1-1.4-.886,4.733,4.733,0,0,0-5.366-.749C379.621,380.209,378.663,379.57,378.721,377.008Zm19.192,1.638c4.821-.281,9.708-.192,13.977-3.092,2.6-1.767,5.318-3.367,7.978-5.049a3.15,3.15,0,0,0,.511-.439,49.879,49.879,0,0,0,6.419-7.945,28.189,28.189,0,0,0,4.75-18.31c-.464-5.438-2.185-6.669-6.61-6.131a5.718,5.718,0,0,0-1.623.471,64.082,64.082,0,0,0-11.031,5.728,113.932,113.932,0,0,0-16.209,13.883,34.444,34.444,0,0,0-7.182,11.3c-1.527,3.792.884,8.538,4.468,9.164A17.68,17.68,0,0,0,397.913,378.646Zm13.015-47.34a7.991,7.991,0,0,0-3.37.426c-3.22,1.168-6.417,2.4-9.518,3.862a3.494,3.494,0,0,0-.438.248c-3.725,2.515-6.638,5.873-9.442,9.3-1.661,2.033-3.261,4.2-3.692,6.913-.377,2.37-1.161,4.76-.159,7.147.57,1.358,1.164,1.368,2.238.35,2.056-1.951,3.354-4.492,5.267-6.576,1.176-1.28,2.423-2.5,3.645-3.718a68.346,68.346,0,0,1,16.133-12.613,16.677,16.677,0,0,0,3.166-2.47c1.1-1.047.686-2.213-.837-2.561a8.893,8.893,0,0,0-2.993-.309Z" fill="#306398"/>
    <g id="MINDFULNESS_YOGA" data-name="MINDFULNESS YOGA" style="isolation: isolate">
      <g id="Group_143" data-name="Group 143" style="isolation: isolate">
        <path id="Path_75" data-name="Path 75" d="M469.423,345.436c.107.253.211.508.314.765.1-.265.209-.525.319-.782s.227-.5.352-.737l4.708-8.81a1.194,1.194,0,0,1,.181-.265.579.579,0,0,1,.209-.143.921.921,0,0,1,.259-.054c.095-.008.209-.012.341-.012h2.233V351.3h-2.607V341.03c0-.191.005-.4.017-.627s.027-.458.049-.693l-4.807,9.02a1.256,1.256,0,0,1-.429.478,1.1,1.1,0,0,1-.616.171h-.407a1.1,1.1,0,0,1-.616-.171,1.256,1.256,0,0,1-.429-.478l-4.873-9.053c.029.242.049.479.06.709s.017.447.017.644V351.3h-2.607V335.4h2.233c.132,0,.245,0,.341.012a.922.922,0,0,1,.258.054.637.637,0,0,1,.215.143,1.107,1.107,0,0,1,.187.265l4.752,8.833Q469.264,345.056,469.423,345.436Z" fill="#306398"/>
        <path id="Path_76" data-name="Path 76" d="M485.764,351.3h-2.97V335.4h2.97Z" fill="#306398"/>
        <path id="Path_77" data-name="Path 77" d="M492.1,335.415a.738.738,0,0,1,.236.066.775.775,0,0,1,.2.143,2.282,2.282,0,0,1,.22.248l8.349,10.636q-.044-.385-.06-.754c-.012-.245-.017-.474-.017-.687V335.4h2.607V351.3H502.11a1.329,1.329,0,0,1-.583-.111,1.29,1.29,0,0,1-.451-.395l-8.316-10.592c.022.234.038.466.049.7s.017.441.017.633V351.3h-2.607V335.4h1.551A2.72,2.72,0,0,1,492.1,335.415Z" fill="#306398"/>
        <path id="Path_78" data-name="Path 78" d="M521.854,343.351a8.594,8.594,0,0,1-.583,3.212,7.2,7.2,0,0,1-4.179,4.158,8.945,8.945,0,0,1-3.289.583H507.73V335.4H513.8a8.843,8.843,0,0,1,3.289.589,7.437,7.437,0,0,1,2.541,1.638,7.32,7.32,0,0,1,1.638,2.514A8.6,8.6,0,0,1,521.854,343.351Zm-3.024,0a7.33,7.33,0,0,0-.352-2.349,4.993,4.993,0,0,0-1-1.759,4.315,4.315,0,0,0-1.579-1.106,5.425,5.425,0,0,0-2.1-.385h-3.091v11.2H513.8a5.425,5.425,0,0,0,2.1-.386,4.315,4.315,0,0,0,1.579-1.106,4.984,4.984,0,0,0,1-1.759A7.326,7.326,0,0,0,518.83,343.351Z" fill="#306398"/>
        <path id="Path_79" data-name="Path 79" d="M535.088,335.4v2.354h-7.051v4.708h5.951v2.366h-5.951V351.3h-2.981V335.4Z" fill="#306398"/>
        <path id="Path_80" data-name="Path 80" d="M544.69,348.917a3.9,3.9,0,0,0,1.535-.286,3.2,3.2,0,0,0,1.144-.8,3.5,3.5,0,0,0,.715-1.255,5.16,5.16,0,0,0,.247-1.65V335.4h2.959v9.526a7.34,7.34,0,0,1-.456,2.623,5.929,5.929,0,0,1-1.314,2.079,6.007,6.007,0,0,1-2.08,1.365,7.992,7.992,0,0,1-5.5,0,5.833,5.833,0,0,1-3.382-3.444,7.342,7.342,0,0,1-.456-2.623V335.4h2.959v9.516a5.16,5.16,0,0,0,.247,1.649,3.607,3.607,0,0,0,.71,1.26,3.1,3.1,0,0,0,1.138.808A3.9,3.9,0,0,0,544.69,348.917Z" fill="#306398"/>
        <path id="Path_81" data-name="Path 81" d="M558.144,348.862h6.369V351.3h-9.328V335.4h2.959Z" fill="#306398"/>
        <path id="Path_82" data-name="Path 82" d="M569.319,335.415a.752.752,0,0,1,.237.066.787.787,0,0,1,.2.143,2.272,2.272,0,0,1,.22.248l8.349,10.636c-.029-.257-.05-.508-.06-.754s-.017-.474-.017-.687V335.4h2.607V351.3h-1.529a1.333,1.333,0,0,1-.583-.111,1.282,1.282,0,0,1-.451-.395l-8.316-10.592c.022.234.039.466.049.7s.017.441.017.633V351.3h-2.607V335.4h1.551A2.719,2.719,0,0,1,569.319,335.415Z" fill="#306398"/>
        <path id="Path_83" data-name="Path 83" d="M594.982,335.4v2.354h-7.05v4.412h5.554v2.276h-5.554v4.5h7.05V351.3H584.95V335.4Z" fill="#306398"/>
        <path id="Path_84" data-name="Path 84" d="M606.95,338.292a.826.826,0,0,1-.28.34.708.708,0,0,1-.38.1.974.974,0,0,1-.495-.17c-.184-.114-.4-.24-.649-.38a5.462,5.462,0,0,0-.875-.38,3.691,3.691,0,0,0-1.182-.17,3.473,3.473,0,0,0-1.072.149,2.246,2.246,0,0,0-.77.412,1.65,1.65,0,0,0-.468.633,2.088,2.088,0,0,0-.154.808,1.405,1.405,0,0,0,.313.935,2.617,2.617,0,0,0,.832.639,7.691,7.691,0,0,0,1.176.472q.66.21,1.348.446a13.059,13.059,0,0,1,1.347.549,4.684,4.684,0,0,1,1.177.792,3.6,3.6,0,0,1,.83,1.172,4.071,4.071,0,0,1,.314,1.683,5.493,5.493,0,0,1-.368,2.018,4.682,4.682,0,0,1-1.078,1.64,5.062,5.062,0,0,1-1.733,1.1,6.368,6.368,0,0,1-2.343.4,7.492,7.492,0,0,1-1.5-.148,7.913,7.913,0,0,1-1.414-.423,7.414,7.414,0,0,1-1.264-.659,6.19,6.19,0,0,1-1.051-.859l.858-1.419a1.129,1.129,0,0,1,.291-.259.721.721,0,0,1,.38-.1,1.05,1.05,0,0,1,.594.225q.32.227.754.5a5.728,5.728,0,0,0,1.022.5,3.949,3.949,0,0,0,1.414.226,2.9,2.9,0,0,0,1.958-.6,2.151,2.151,0,0,0,.693-1.721,1.6,1.6,0,0,0-.314-1.023,2.556,2.556,0,0,0-.83-.666,6.278,6.278,0,0,0-1.177-.456q-.66-.187-1.342-.407a11.561,11.561,0,0,1-1.342-.527,4.37,4.37,0,0,1-1.177-.8,3.645,3.645,0,0,1-.83-1.237,4.718,4.718,0,0,1-.313-1.831,4.364,4.364,0,0,1,1.358-3.158,4.991,4.991,0,0,1,1.633-1.023,5.962,5.962,0,0,1,2.211-.385,7.4,7.4,0,0,1,2.6.441,5.851,5.851,0,0,1,2.024,1.231Z" fill="#306398"/>
        <path id="Path_85" data-name="Path 85" d="M619.633,338.292a.812.812,0,0,1-.28.34.707.707,0,0,1-.379.1.962.962,0,0,1-.495-.17c-.184-.114-.4-.24-.65-.38a5.446,5.446,0,0,0-.874-.38,3.7,3.7,0,0,0-1.183-.17,3.481,3.481,0,0,0-1.073.149,2.26,2.26,0,0,0-.769.412,1.65,1.65,0,0,0-.468.633,2.07,2.07,0,0,0-.153.808,1.405,1.405,0,0,0,.313.935,2.618,2.618,0,0,0,.83.639,7.79,7.79,0,0,0,1.177.472q.66.21,1.348.446a13.059,13.059,0,0,1,1.347.549,4.683,4.683,0,0,1,1.177.792,3.6,3.6,0,0,1,.831,1.172,4.07,4.07,0,0,1,.314,1.683,5.474,5.474,0,0,1-.37,2.018,4.641,4.641,0,0,1-1.078,1.64,5.048,5.048,0,0,1-1.732,1.1,6.372,6.372,0,0,1-2.343.4,7.477,7.477,0,0,1-1.5-.148,7.9,7.9,0,0,1-1.413-.423,7.433,7.433,0,0,1-1.266-.659,6.263,6.263,0,0,1-1.05-.859l.858-1.419a1.135,1.135,0,0,1,.292-.259.715.715,0,0,1,.379-.1,1.05,1.05,0,0,1,.594.225c.212.151.464.318.753.5a5.719,5.719,0,0,0,1.024.5,3.933,3.933,0,0,0,1.413.226,2.893,2.893,0,0,0,1.958-.6,2.151,2.151,0,0,0,.693-1.721,1.6,1.6,0,0,0-.313-1.023,2.571,2.571,0,0,0-.831-.666,6.279,6.279,0,0,0-1.177-.456c-.439-.125-.888-.261-1.342-.407a11.493,11.493,0,0,1-1.342-.527,4.334,4.334,0,0,1-1.176-.8,3.634,3.634,0,0,1-.831-1.237,4.717,4.717,0,0,1-.314-1.831,4.381,4.381,0,0,1,1.359-3.158,5,5,0,0,1,1.633-1.023,5.961,5.961,0,0,1,2.211-.385,7.4,7.4,0,0,1,2.6.441,5.85,5.85,0,0,1,2.024,1.231Z" fill="#306398"/>
      </g>
      <g id="Group_144" data-name="Group 144" style="isolation: isolate">
        <path id="Path_86" data-name="Path 86" d="M468.164,371.122V377.3H465.2v-6.182l-5.8-9.725h2.607a.925.925,0,0,1,.61.188,1.587,1.587,0,0,1,.38.473l2.915,5.313c.168.316.315.614.44.9s.238.558.341.83c.1-.279.2-.559.324-.842s.266-.577.435-.885l2.893-5.313a1.483,1.483,0,0,1,.363-.452.915.915,0,0,1,.616-.209h2.618Z" fill="#306398"/>
        <path id="Path_87" data-name="Path 87" d="M490.747,369.351a8.825,8.825,0,0,1-.583,3.239,7.689,7.689,0,0,1-1.639,2.58,7.42,7.42,0,0,1-2.541,1.7,9.188,9.188,0,0,1-6.584,0,7.477,7.477,0,0,1-2.552-1.7,7.639,7.639,0,0,1-1.644-2.58,9.292,9.292,0,0,1,0-6.479,7.639,7.639,0,0,1,1.644-2.58,7.491,7.491,0,0,1,2.552-1.7,8.616,8.616,0,0,1,3.3-.61,8.5,8.5,0,0,1,3.289.616,7.521,7.521,0,0,1,2.541,1.7,7.623,7.623,0,0,1,1.639,2.574A8.834,8.834,0,0,1,490.747,369.351Zm-3.036,0a7.413,7.413,0,0,0-.347-2.349,5,5,0,0,0-1-1.766,4.305,4.305,0,0,0-1.578-1.11,5.9,5.9,0,0,0-4.2,0,4.333,4.333,0,0,0-1.59,1.11A5,5,0,0,0,478,367a8.011,8.011,0,0,0,0,4.7,4.913,4.913,0,0,0,1.006,1.76,4.345,4.345,0,0,0,1.59,1.1,5.9,5.9,0,0,0,4.2,0,4.317,4.317,0,0,0,1.578-1.1,4.909,4.909,0,0,0,1-1.76A7.4,7.4,0,0,0,487.711,369.351Z" fill="#306398"/>
        <path id="Path_88" data-name="Path 88" d="M501.264,375.126a7.4,7.4,0,0,0,1.743-.182,7.31,7.31,0,0,0,1.413-.5v-2.892h-1.99a.619.619,0,0,1-.451-.159.523.523,0,0,1-.166-.391v-1.672H507.1v6.435a8.732,8.732,0,0,1-1.259.764,8.1,8.1,0,0,1-1.4.534,10.66,10.66,0,0,1-1.59.313,15.074,15.074,0,0,1-1.826.1,8.3,8.3,0,0,1-3.2-.6,7.516,7.516,0,0,1-4.2-4.257,8.7,8.7,0,0,1-.6-3.267,8.977,8.977,0,0,1,.583-3.289,7.237,7.237,0,0,1,4.257-4.247,9.433,9.433,0,0,1,3.433-.593,8.95,8.95,0,0,1,3.371.577,7.806,7.806,0,0,1,2.415,1.5l-.859,1.342a.764.764,0,0,1-.671.407,1,1,0,0,1-.539-.176c-.235-.14-.474-.279-.72-.418a4.783,4.783,0,0,0-.814-.363,6.521,6.521,0,0,0-1-.253,7.279,7.279,0,0,0-1.282-.1,5.486,5.486,0,0,0-2.128.4,4.477,4.477,0,0,0-1.623,1.133,5.112,5.112,0,0,0-1.034,1.771,6.937,6.937,0,0,0-.363,2.31,7.206,7.206,0,0,0,.385,2.447,5.124,5.124,0,0,0,1.078,1.809,4.632,4.632,0,0,0,1.65,1.128A5.489,5.489,0,0,0,501.264,375.126Z" fill="#306398"/>
        <path id="Path_89" data-name="Path 89" d="M524.726,377.3h-2.289a1,1,0,0,1-.631-.193,1.093,1.093,0,0,1-.358-.478l-1.188-3.245h-6.589l-1.188,3.245a1.046,1.046,0,0,1-.346.462.979.979,0,0,1-.633.209h-2.3l6.248-15.907h3.025Zm-10.3-6.006H519.5l-1.937-5.291q-.131-.352-.291-.831t-.313-1.039c-.1.374-.2.722-.3,1.045s-.2.6-.291.846Z" fill="#306398"/>
      </g>
    </g>
  </g>
</svg>
